<svg clip-rule="evenodd" fill-rule="evenodd" stroke-linejoin="round" stroke-miterlimit="2" viewBox="0 0 1000 1000" xmlns="http://www.w3.org/2000/svg"><path d="m501.548 423.862s-103.661 278.871-103.661 398.387c0 33.827 46.449 61.29 103.661 61.29s103.661-27.463 103.661-61.29c0-119.516-103.661-398.387-103.661-398.387z" fill="#0dcaf2" transform="matrix(0 -.964684 1.63158 0 -591.566 983.835)"/><path d="m119.262 601.684c61.932 11.928 125.625 23.494 188.121 33.78 78.262 162.343 291.774 286.772 542.617 314.536-355.661 0-653.833-148.86-730.738-348.316zm0-203.368c76.905-199.456 375.077-348.316 730.738-348.316-250.843 27.764-464.355 152.193-542.617 314.536-62.496 10.286-126.189 21.852-188.121 33.78z" fill="#0d79f2"/></svg>